<svg xmlns="http://www.w3.org/2000/svg">
  <symbol id="icon-home" viewBox="0 0 24 24">
    <path d="M3 11.2 12 4l9 7.2" fill="none" stroke="currentColor" stroke-linecap="round" stroke-linejoin="round" stroke-width="2"/>
    <path d="M5.5 10.5V20h5v-5h3v5h5v-9.5" fill="none" stroke="currentColor" stroke-linecap="round" stroke-linejoin="round" stroke-width="2"/>
  </symbol>
  <symbol id="icon-timeline" viewBox="0 0 24 24">
    <path d="M12 7v5l3.2 2" fill="none" stroke="currentColor" stroke-linecap="round" stroke-linejoin="round" stroke-width="2"/>
    <circle cx="12" cy="12" r="8" fill="none" stroke="currentColor" stroke-width="2"/>
  </symbol>
  <symbol id="icon-more" viewBox="0 0 24 24">
    <circle cx="6" cy="12" r="1.7" fill="currentColor"/>
    <circle cx="12" cy="12" r="1.7" fill="currentColor"/>
    <circle cx="18" cy="12" r="1.7" fill="currentColor"/>
  </symbol>
  <symbol id="icon-category" viewBox="0 0 24 24">
    <path d="M4 5h7v7H4zM13 5h7v7h-7zM4 14h7v5H4zM13 14h7v5h-7z" fill="none" stroke="currentColor" stroke-linejoin="round" stroke-width="2"/>
  </symbol>
  <symbol id="icon-album" viewBox="0 0 24 24">
    <rect x="4" y="5" width="16" height="14" rx="2" fill="none" stroke="currentColor" stroke-width="2"/>
    <path d="m7 16 3.2-3.2 2.6 2.6 2.2-2.2 3 2.8" fill="none" stroke="currentColor" stroke-linecap="round" stroke-linejoin="round" stroke-width="2"/>
    <circle cx="15.8" cy="9" r="1.2" fill="currentColor"/>
  </symbol>
  <symbol id="icon-moment" viewBox="0 0 24 24">
    <path d="M5 18.5 6.2 14 15.8 4.4a2.2 2.2 0 0 1 3.1 3.1L9.3 17.1z" fill="none" stroke="currentColor" stroke-linecap="round" stroke-linejoin="round" stroke-width="2"/>
    <path d="M13.8 6.4 16.9 9.5" fill="none" stroke="currentColor" stroke-linecap="round" stroke-width="2"/>
  </symbol>
  <symbol id="icon-message" viewBox="0 0 24 24">
    <path d="M5 6h14v10H9l-4 3z" fill="none" stroke="currentColor" stroke-linecap="round" stroke-linejoin="round" stroke-width="2"/>
    <path d="M8 10h8M8 13h5" fill="none" stroke="currentColor" stroke-linecap="round" stroke-width="2"/>
  </symbol>
  <symbol id="icon-login" viewBox="0 0 24 24">
    <path d="M10 7V5h8v14h-8v-2" fill="none" stroke="currentColor" stroke-linecap="round" stroke-linejoin="round" stroke-width="2"/>
    <path d="M4 12h9M10 9l3 3-3 3" fill="none" stroke="currentColor" stroke-linecap="round" stroke-linejoin="round" stroke-width="2"/>
  </symbol>
  <symbol id="icon-moon" viewBox="0 0 24 24">
    <path d="M19 15.2A7.7 7.7 0 0 1 8.8 5a8 8 0 1 0 10.2 10.2z" fill="none" stroke="currentColor" stroke-linecap="round" stroke-linejoin="round" stroke-width="2"/>
  </symbol>
  <symbol id="icon-sun" viewBox="0 0 24 24">
    <circle cx="12" cy="12" r="4" fill="none" stroke="currentColor" stroke-width="2"/>
    <path d="M12 2.8v2M12 19.2v2M4.9 4.9l1.4 1.4M17.7 17.7l1.4 1.4M2.8 12h2M19.2 12h2M4.9 19.1l1.4-1.4M17.7 6.3l1.4-1.4" fill="none" stroke="currentColor" stroke-linecap="round" stroke-width="2"/>
  </symbol>
  <symbol id="icon-wechat" viewBox="0 0 24 24">
    <path d="M9.3 5.4C5.8 5.4 3 7.7 3 10.6c0 1.6.9 3.1 2.3 4l-.5 2.1 2.3-1.2c.7.2 1.4.3 2.2.3 3.5 0 6.3-2.3 6.3-5.2S12.8 5.4 9.3 5.4z" fill="none" stroke="currentColor" stroke-linejoin="round" stroke-width="1.8"/>
    <path d="M13.8 10.2c3 0 5.2 2 5.2 4.4 0 1.3-.7 2.5-1.9 3.3l.4 1.7-1.9-.9c-.6.2-1.2.3-1.8.3-2.8 0-5.2-1.9-5.2-4.4" fill="none" stroke="currentColor" stroke-linecap="round" stroke-linejoin="round" stroke-width="1.8"/>
    <circle cx="7.2" cy="10" r=".8" fill="currentColor"/>
    <circle cx="11.3" cy="10" r=".8" fill="currentColor"/>
  </symbol>
  <symbol id="icon-qq" viewBox="0 0 24 24">
    <path d="M8.1 10.1c0-3.2 1.7-5.6 3.9-5.6s3.9 2.4 3.9 5.6v2.2c0 2.9-1.7 5.2-3.9 5.2s-3.9-2.3-3.9-5.2z" fill="none" stroke="currentColor" stroke-linejoin="round" stroke-width="1.8"/>
    <path d="M8.4 11.7 5.2 15M15.6 11.7l3.2 3.3M8.4 16.7 6.2 20M15.6 16.7l2.2 3.3" fill="none" stroke="currentColor" stroke-linecap="round" stroke-width="1.8"/>
    <circle cx="10.4" cy="9.3" r=".7" fill="currentColor"/>
    <circle cx="13.6" cy="9.3" r=".7" fill="currentColor"/>
    <path d="M10.3 13.4c1 .7 2.4.7 3.4 0" fill="none" stroke="currentColor" stroke-linecap="round" stroke-width="1.8"/>
  </symbol>
</svg>
